<svg width="50" height="50" viewBox="0 0 50 50" fill="none" xmlns="http://www.w3.org/2000/svg">
<rect width="50" height="49.9985" fill="#00693E"/>
<rect x="23.4956" y="26.0116" width="3.55567" height="3.55567" transform="rotate(-45 23.4956 26.0116)" fill="#1B1B1B"/>
<rect x="22.431" y="18.4918" width="7.11134" height="3.1606" fill="#1B1B1B"/>
<path fill-rule="evenodd" clip-rule="evenodd" d="M20.8507 6.24451L22.431 16.5164V16.5165L29.5423 16.5165L31.1226 6.24451L20.8507 6.24451Z" fill="#1B1B1B"/>
<rect x="18.4803" y="29.5539" width="7.11134" height="3.1606" transform="rotate(-90 18.4803 29.5539)" fill="#1B1B1B"/>
<path fill-rule="evenodd" clip-rule="evenodd" d="M6.23293 31.1342L16.5049 29.5539H16.5049V22.4426L6.23299 20.8623H6.23293V31.1342Z" fill="#1B1B1B"/>
<rect x="33.9724" y="28.9555" width="7.11134" height="3.1606" transform="rotate(135 33.9724 28.9555)" fill="#1B1B1B"/>
<path fill-rule="evenodd" clip-rule="evenodd" d="M43.75 36.4982L35.3692 30.3523L30.3408 35.3807L30.3408 35.3807L36.4867 43.7615L43.75 36.4982Z" fill="#1B1B1B"/>
</svg>
